HIERARCHY
ROOT Hips
{
	OFFSET -0.001795 -0.223333 0.028219
	CHANNELS 6 Xposition Yposition Zposition Zrotation Yrotation Xrotation 
	JOINT LeftUpLeg
	{
		OFFSET 0.069520 -0.091406 -0.006815
		CHANNELS 3 Zrotation Yrotation Xrotation
		JOINT LeftLeg
		{
			OFFSET 0.034277 -0.375199 -0.004496
			CHANNELS 3 Zrotation Yrotation Xrotation
			JOINT LeftFoot
			{
				OFFSET -0.013596 -0.397961 -0.043693
				CHANNELS 3 Zrotation Yrotation Xrotation
				JOINT LeftToe
				{
					OFFSET 0.026358 -0.055791 0.119288
					CHANNELS 3 Zrotation Yrotation Xrotation
					End Site
					{
						OFFSET 0.000000 0.000000 0.000000
					}
				}
			}
		}
	}
	JOINT RightUpLeg
	{
		OFFSET -0.067670 -0.090522 -0.004320
		CHANNELS 3 Zrotation Yrotation Xrotation
		JOINT RightLeg
		{
			OFFSET -0.038290 -0.382569 -0.008850
			CHANNELS 3 Zrotation Yrotation Xrotation
			JOINT RightFoot
			{
				OFFSET 0.015774 -0.398415 -0.042312
				CHANNELS 3 Zrotation Yrotation Xrotation
				JOINT RightToe
				{
					OFFSET -0.025372 -0.048144 0.123348
					CHANNELS 3 Zrotation Yrotation Xrotation
					End Site
					{
						OFFSET 0.000000 0.000000 0.000000
					}
				}
			}
		}
	}
	JOINT Spine
	{
		OFFSET -0.002533 0.108963 -0.026696
		CHANNELS 3 Zrotation Yrotation Xrotation
		JOINT Spine1
		{
			OFFSET 0.005487 0.135180 0.001092
			CHANNELS 3 Zrotation Yrotation Xrotation
			JOINT Spine2
			{
				OFFSET 0.001457 0.052922 0.025425
				CHANNELS 3 Zrotation Yrotation Xrotation
				JOINT Neck
				{
					OFFSET -0.002778 0.213870 -0.042857
					CHANNELS 3 Zrotation Yrotation Xrotation
					JOINT Head
					{
						OFFSET 0.005152 0.064970 0.051349
						CHANNELS 3 Zrotation Yrotation Xrotation
						End Site
						{
							OFFSET 0.000000 0.000000 0.000000
						}
					}
				}
				JOINT LeftShoulder
				{
					OFFSET 0.078845 0.121749 -0.034090
					CHANNELS 3 Zrotation Yrotation Xrotation
					JOINT LeftArm
					{
						OFFSET 0.090977 0.030469 -0.008868
						CHANNELS 3 Zrotation Yrotation Xrotation
						JOINT LeftForeArm
						{
							OFFSET 0.259612 -0.012772 -0.027456
							CHANNELS 3 Zrotation Yrotation Xrotation
							JOINT LeftHand
							{
								OFFSET 0.249234 0.008986 -0.001171
								CHANNELS 3 Zrotation Yrotation Xrotation
								End Site
								{
									OFFSET 0.000000 0.000000 0.000000
								}
							}
						}
					}
				}
				JOINT RightShoulder
				{
					OFFSET -0.081759 0.118833 -0.038615
					CHANNELS 3 Zrotation Yrotation Xrotation
					JOINT RightArm
					{
						OFFSET -0.096012 0.032551 -0.009143
						CHANNELS 3 Zrotation Yrotation Xrotation
						JOINT RightForeArm
						{
							OFFSET -0.253742 -0.013329 -0.021401
							CHANNELS 3 Zrotation Yrotation Xrotation
							JOINT RightHand
							{
								OFFSET -0.255298 0.007772 -0.005559
								CHANNELS 3 Zrotation Yrotation Xrotation
								End Site
								{
									OFFSET 0.000000 0.000000 0.000000
								}
							}
						}
					}
				}
			}
		}
	}
}
MOTION
Frames: 6
Frame Time: 0.050000
0.000000 0.957703 0.000000 -1.590897 3.873867 0.080156 2.635419 0.132520 2.921853 0.415727 0.081853 -3.320221 -0.689788 2.611642 8.479868 0.000000 0.000000 0.000000 0.048678 -0.025653 0.241294 -0.849525 0.116799 0.443625 2.562866 2.539376 7.507909 0.000000 0.000000 0.000000 0.402466 -0.058563 1.256313 0.615624 -0.119057 -3.892455 -0.702520 -1.423464 5.692729 2.848501 -0.477472 -16.486775 0.000000 0.000000 0.000000 -21.087616 -0.232902 -2.125353 -49.615116 -5.938254 -3.566146 -14.330238 -20.304183 3.290460 0.000000 0.000000 0.000000 19.823460 -0.721347 -2.002781 56.037574 7.043921 -2.351732 8.088115 20.062280 1.981877 0.000000 0.000000 0.000000 
0.000116 0.956343 0.000185 -1.506795 3.219694 0.245679 2.194573 0.171322 3.131386 0.865375 0.062497 -3.681550 -0.353141 2.593067 7.122481 0.000000 0.000000 0.000000 -0.709831 0.017927 -0.053694 -0.089164 0.037556 0.705088 3.533138 4.815316 7.072303 0.000000 0.000000 0.000000 0.487784 -0.058060 1.200404 -0.239968 0.225200 -3.171964 0.056480 -1.603811 4.758359 2.293738 -0.093215 -17.695808 0.000000 0.000000 0.000000 -21.359518 0.640698 -2.477589 -49.616138 -5.788736 -3.586416 -15.093172 -20.416547 3.471142 0.000000 0.000000 0.000000 18.902866 -1.146889 -2.353481 57.592460 6.091101 -2.725183 8.140098 20.797077 2.033776 0.000000 0.000000 0.000000 
0.000177 0.955485 0.000011 -1.220029 3.537797 0.154024 2.098661 0.170392 3.072359 0.676159 0.048346 -2.954450 -0.505885 2.043749 6.425580 0.000000 0.000000 0.000000 -0.664128 0.006536 0.049140 -0.697420 0.119392 0.916509 3.015459 4.385336 5.768937 0.000000 0.000000 0.000000 0.330973 -0.068751 1.517958 0.179721 0.093807 -4.575923 -0.656666 -1.938858 5.628172 1.872753 0.065089 -16.817697 0.000000 0.000000 0.000000 -20.366844 0.449059 -2.226757 -50.129993 -5.331904 -3.891926 -15.055513 -20.758002 3.534192 0.000000 0.000000 0.000000 19.999850 -0.641048 -2.172732 56.470350 5.138597 -3.221009 7.563866 21.167717 1.986472 0.000000 0.000000 0.000000 
0.000064 0.955147 -0.000246 -1.424522 3.685031 -0.005062 2.233376 0.168810 3.153102 0.888362 0.035757 -3.045464 -0.606010 1.676763 5.982273 0.000000 0.000000 0.000000 -0.765549 0.002572 0.101646 -0.288293 0.073305 1.001511 3.499907 5.616007 5.561908 0.000000 0.000000 0.000000 0.349869 -0.083885 1.852206 -0.252726 0.257408 -3.817489 0.074914 -2.734385 4.519279 1.587341 0.173923 -17.045097 0.000000 0.000000 0.000000 -20.095836 1.498479 -2.579159 -50.533312 -5.585782 -3.765216 -15.701253 -20.511814 3.639100 0.000000 0.000000 0.000000 19.558668 -0.569457 -2.349842 56.223774 4.798772 -3.223314 8.579165 20.790979 2.062999 0.000000 0.000000 0.000000 
-0.000110 0.955160 -0.000632 -1.356656 4.031162 -0.085482 2.310728 0.160181 3.111839 0.761680 0.040349 -2.906091 -0.662926 1.661308 6.129071 0.000000 0.000000 0.000000 -0.855691 -0.017215 0.314288 -0.100366 0.042698 0.806459 3.169475 5.009416 5.340937 0.000000 0.000000 0.000000 0.339082 -0.093943 2.088244 -0.063593 0.194129 -4.253629 -0.260351 -2.590443 4.864702 1.583772 0.203567 -16.910673 0.000000 0.000000 0.000000 -19.801571 1.238925 -2.496475 -50.514276 -5.585896 -3.773501 -16.327448 -20.565226 3.748343 0.000000 0.000000 0.000000 19.912648 -0.716024 -2.354000 55.865913 4.663979 -3.315691 8.829652 20.240125 2.061458 0.000000 0.000000 0.000000 
-0.000213 0.955350 -0.000894 -1.360231 4.291033 -0.000965 2.248523 0.155708 3.035967 0.870234 0.040905 -3.118931 -0.659331 1.645479 6.038278 0.000000 0.000000 0.000000 -0.919531 -0.015904 0.309549 0.018421 0.021098 0.618043 3.449570 5.556629 5.552977 0.000000 0.000000 0.000000 0.222631 -0.090531 2.076317 -0.001484 0.177567 -4.452437 -0.063612 -2.788299 5.071530 1.456341 0.288653 -17.194265 0.000000 0.000000 0.000000 -19.979357 1.667488 -2.719978 -50.655741 -5.795315 -3.721346 -16.371618 -20.524716 3.756702 0.000000 0.000000 0.000000 19.556676 -0.723991 -2.334504 56.040258 4.779394 -3.290187 8.703572 19.554292 1.961613 0.000000 0.000000 0.000000 
